<?xml version="1.0" standalone="no"?>
<!DOCTYPE svg PUBLIC "-//W3C//DTD SVG 20010904//EN"
 "http://www.w3.org/TR/2001/REC-SVG-20010904/DTD/svg10.dtd">
<svg version="1.0" xmlns="http://www.w3.org/2000/svg"
 width="500.000000pt" height="500.000000pt" viewBox="0 0 500.000000 500.000000"
 preserveAspectRatio="xMidYMid meet">
<metadata>
Created by potrace 1.14, written by Peter Selinger 2001-2017
</metadata>
<g transform="translate(0.000000,500.000000) scale(0.100000,-0.100000)"
fill="#000000" stroke="none">
<path d="M2338 4995 c-1 -1 -41 -6 -88 -9 -47 -4 -92 -9 -100 -11 -8 -2 -33
-6 -55 -10 -138 -20 -492 -120 -519 -146 -6 -5 -16 -9 -24 -9 -19 0 -209 -94
-312 -154 -87 -50 -263 -169 -290 -196 -9 -8 -38 -33 -65 -55 -148 -118 -374
-377 -498 -571 -136 -214 -261 -511 -317 -754 -21 -91 -32 -148 -36 -180 -2
-19 -6 -44 -9 -55 -19 -87 -27 -469 -11 -605 65 -575 310 -1090 710 -1495 138
-139 234 -220 376 -315 94 -63 277 -170 290 -170 5 0 24 -9 42 -19 60 -35 342
-140 418 -156 8 -2 33 -8 55 -14 60 -15 183 -39 240 -46 28 -4 61 -9 75 -12
43 -9 462 -11 525 -2 33 4 78 10 100 13 83 10 123 18 240 46 685 164 1274 614
1609 1229 92 170 198 435 222 556 1 6 7 28 13 51 14 52 32 143 46 229 15 98
20 181 20 360 0 200 -6 287 -26 400 -5 33 -12 74 -15 90 -3 17 -12 57 -21 90
-8 33 -16 65 -17 70 -22 98 -95 293 -162 435 -120 252 -282 479 -483 680 -75
74 -151 146 -169 160 -18 14 -45 35 -60 48 -119 101 -436 283 -624 357 -72 28
-232 81 -270 89 -13 3 -61 14 -108 25 -47 11 -103 22 -125 25 -22 4 -53 9 -70
11 -83 13 -135 17 -312 20 -105 2 -193 2 -195 0z"/>
</g>
</svg>
